<svg width="195" height="189" viewBox="0 0 195 189" fill="none" xmlns="http://www.w3.org/2000/svg">
<path d="M84.0968 188.824C69.7592 185.884 62.3408 162.862 58.6697 150.469C53.2034 131.997 53.02 111.66 39.588 96.4132C30.4725 86.0856 13.7242 77.3904 5.75404 67.4161C-15.3827 40.9122 26.9458 20.0205 48.2814 38.1279C65.7795 52.9669 63.4784 98.6407 66.6032 120.887C71.9942 159.329 83.5231 189.023 117.16 143.992C133.915 121.565 140.545 92.6266 135.517 65.2663C131.659 44.2887 115.318 7.69677 147.206 0.683082C175.242 -5.47838 198.809 31.4103 193.769 56.3068C190.968 70.1445 166.016 94.8312 156.426 107.584C139.321 130.331 119.27 170.008 96.5784 185.29C93.139 187.617 88.2876 189.666 84.1029 188.796L84.0968 188.824Z" fill="#2A1F16"/>
</svg>
