<svg width="446" height="41" viewBox="0 0 446 41" fill="none" xmlns="http://www.w3.org/2000/svg">
<path d="M0 3.86109C0 3.17707 0.387009 2.77206 1.16103 2.64606C1.93504 2.50206 4.04109 2.43006 7.47917 2.43006C10.9173 2.43006 12.6363 2.82606 12.6363 3.61808C12.6363 3.90609 12.4563 4.3471 12.0963 4.94111C11.7363 5.51713 11.5563 6.19214 11.5563 6.96616C11.5563 7.72218 11.8803 9.10821 12.5283 11.1243C15.2103 19.4584 17.0914 24.9756 18.1714 27.6756C19.2694 30.3757 19.8995 31.7257 20.0615 31.7257C20.4035 31.7257 20.9795 30.7627 21.7895 28.8367C24.2916 22.8785 26.2716 17.2624 27.7296 11.9883C28.3236 9.84623 28.6207 8.41519 28.6207 7.69518C28.6207 6.95716 28.5037 6.36315 28.2696 5.91314C28.0356 5.44512 27.7656 4.97711 27.4596 4.5091C27.1536 4.04109 27.0006 3.70809 27.0006 3.51008C27.0006 2.73606 28.4767 2.34905 31.4287 2.34905H33.2918C36.0818 2.34905 37.4769 2.71806 37.4769 3.45608C37.4769 4.08609 36.9008 4.77011 35.7488 5.50813C34.5968 6.24614 33.8318 6.95716 33.4538 7.64118C33.0938 8.32519 31.3207 12.8793 28.1346 21.3035C24.9486 29.7097 22.8875 34.9568 21.9515 37.0448C21.0335 39.1329 19.9535 40.1769 18.7114 40.1769C17.4874 40.1769 16.3714 39.1059 15.3634 36.9638C15.3274 36.9098 13.5093 32.1217 9.90923 22.5995C6.30914 13.0593 4.3021 7.95618 3.88809 7.29017C3.47408 6.60615 2.93407 6.05714 2.26805 5.64313C0.756017 4.72511 0 4.13109 0 3.86109Z" fill="white"/>
<path d="M48.3065 22.3565V21.5195C48.3065 20.1875 47.8295 18.9904 46.8754 17.9284C45.9214 16.8484 44.7514 16.3084 43.3654 16.3084H42.8523C42.6003 16.3444 42.4293 16.3624 42.3393 16.3624C41.0793 16.3624 39.8823 17.0824 38.7483 18.5224C37.6322 19.9625 37.0742 21.5015 37.0742 23.1395V23.4905C37.0742 24.0666 37.4162 24.3546 38.1002 24.3546C38.3702 24.4086 38.5142 24.4356 38.5322 24.4356L39.1533 24.4626H39.3153L39.5043 24.4356L44.7154 24.1386L45.6874 24.0306C47.4335 24.0306 48.3065 23.4725 48.3065 22.3565ZM37.0742 29.5117C37.0742 31.5637 37.8482 33.2828 39.3963 34.6688C40.9443 36.0548 42.9064 36.7478 45.2824 36.7478C46.2364 36.7478 47.1004 36.6128 47.8745 36.3428C48.6665 36.0548 49.5215 35.7128 50.4395 35.3168C51.3755 34.9208 51.9606 34.7228 52.1946 34.7228C52.9146 34.7228 53.2746 35.1098 53.2746 35.8838C53.2746 36.9278 51.9426 38.0439 49.2785 39.2319C47.5505 40.0059 45.6964 40.3929 43.7164 40.3929H43.1224C39.7383 40.3929 36.9302 39.3669 34.6982 37.3149C33.4921 36.1988 32.5561 34.7768 31.8901 33.0488C31.2241 31.3027 30.8911 29.4307 30.8911 27.4326L30.9181 26.8116V26.1906C30.9181 24.4626 31.3141 22.7615 32.1061 21.0875C32.9161 19.4134 33.8791 18.0364 34.9952 16.9564C37.3532 14.6883 40.1523 13.5453 43.3924 13.5273C48.2885 13.5273 51.5466 15.4354 53.1666 19.2514C53.6706 20.4575 53.9226 21.5645 53.9226 22.5725V23.1125C53.9226 24.3546 53.4096 25.1916 52.3836 25.6236C51.3575 26.0376 48.9365 26.3796 45.1204 26.6496C41.3043 26.9196 39.2343 27.0996 38.9103 27.1896C37.6862 27.4956 37.0742 28.2696 37.0742 29.5117Z" fill="white"/>
<path d="M123.483 2.02505H124.401C125.661 2.02505 127.11 2.18705 128.748 2.51106C130.386 2.81706 131.673 2.99707 132.609 3.05107C133.545 3.10507 134.283 3.28508 134.823 3.59108C135.867 4.1851 136.389 5.72413 136.389 8.20819C136.389 10.6922 135.921 11.9343 134.985 11.9343C134.679 11.9343 133.923 11.2503 132.717 9.88223C131.511 8.49619 130.359 7.50617 129.261 6.91216C127.317 5.86813 125.139 5.34612 122.727 5.34612C121.341 5.34612 119.946 5.72413 118.542 6.48015C114.311 8.7302 112.196 13.6263 112.196 21.1685C112.214 25.8486 113.303 29.6287 115.463 32.5087C117.624 35.3888 120.63 36.8288 124.482 36.8288C127.776 36.8288 130.566 35.7398 132.852 33.5618C134.274 32.2117 135.183 31.5367 135.579 31.5367C136.335 31.5367 136.713 32.0857 136.713 33.1838C136.713 33.7418 136.362 34.6148 135.66 35.8028C134.958 36.9908 134.175 37.8279 133.311 38.3139C130.881 39.6639 127.722 40.3389 123.834 40.3389H122.889C120.711 40.3389 118.506 39.9429 116.274 39.1509C111.755 37.5489 108.587 34.3808 106.769 29.6467C105.833 27.1806 105.365 24.4896 105.365 21.5735C105.365 18.6394 105.833 15.9484 106.769 13.5003C108.659 8.5322 111.863 5.15712 116.382 3.37508C118.668 2.47506 121.035 2.02505 123.483 2.02505Z" fill="white"/>
<path d="M143.534 26.0016V27.0006C143.534 30.0607 144.128 32.5987 145.316 34.6148C145.874 35.5688 146.585 36.3248 147.45 36.8828C148.314 37.4409 149.187 37.7199 150.069 37.7199H150.609C152.247 37.7199 153.66 36.9278 154.848 35.3438C156.054 33.7418 156.657 31.4737 156.657 28.5397V26.6226C156.657 23.7245 156.054 21.2675 154.848 19.2514C153.66 17.2174 152.148 16.2004 150.312 16.2004H149.475C147.819 16.2004 146.414 17.0914 145.262 18.8734C144.11 20.6555 143.534 23.0315 143.534 26.0016ZM163.164 26.1096V27.4596C163.164 28.8817 162.876 30.4387 162.3 32.1307C161.094 35.6588 158.691 38.1249 155.091 39.5289C153.525 40.1409 152.013 40.4469 150.555 40.4469H149.664C146.225 40.4469 143.354 39.2949 141.05 36.9908C140.006 35.9468 139.16 34.5698 138.512 32.8598C137.864 31.1497 137.54 29.3317 137.54 27.4056V26.9466C137.54 25.2006 137.846 23.4365 138.458 21.6545C139.646 18.1804 141.977 15.7684 145.451 14.4183C147.018 13.8063 148.521 13.5003 149.961 13.5003H151.311C152.913 13.5003 154.488 13.8603 156.036 14.5803C158.97 15.9484 161.013 18.1264 162.165 21.1145C162.831 22.8785 163.164 24.5436 163.164 26.1096Z" fill="white"/>
<path d="M209.593 22.3565V21.5195C209.593 20.1875 209.116 18.9904 208.162 17.9284C207.208 16.8484 206.038 16.3084 204.652 16.3084H204.139C203.887 16.3444 203.716 16.3624 203.626 16.3624C202.366 16.3624 201.169 17.0824 200.035 18.5224C198.919 19.9625 198.361 21.5015 198.361 23.1395V23.4905C198.361 24.0666 198.703 24.3546 199.387 24.3546C199.657 24.4086 199.801 24.4356 199.819 24.4356L200.44 24.4626H200.602L200.791 24.4356L206.002 24.1386L206.974 24.0306C208.72 24.0306 209.593 23.4725 209.593 22.3565ZM198.361 29.5117C198.361 31.5637 199.135 33.2828 200.683 34.6688C202.231 36.0548 204.193 36.7478 206.569 36.7478C207.523 36.7478 208.387 36.6128 209.161 36.3428C209.953 36.0548 210.808 35.7128 211.726 35.3168C212.662 34.9208 213.247 34.7228 213.481 34.7228C214.201 34.7228 214.561 35.1098 214.561 35.8838C214.561 36.9278 213.229 38.0439 210.565 39.2319C208.837 40.0059 206.983 40.3929 205.003 40.3929H204.409C201.025 40.3929 198.217 39.3669 195.985 37.3149C194.779 36.1988 193.843 34.7768 193.177 33.0488C192.511 31.3027 192.178 29.4307 192.178 27.4326L192.205 26.8116V26.1906C192.205 24.4626 192.601 22.7615 193.393 21.0875C194.203 19.4134 195.166 18.0364 196.282 16.9564C198.64 14.6883 201.439 13.5453 204.679 13.5273C209.575 13.5273 212.833 15.4354 214.453 19.2514C214.957 20.4575 215.209 21.5645 215.209 22.5725V23.1125C215.209 24.3546 214.696 25.1916 213.67 25.6236C212.644 26.0376 210.223 26.3796 206.407 26.6496C202.591 26.9196 200.521 27.0996 200.197 27.1896C198.973 27.4956 198.361 28.2696 198.361 29.5117Z" fill="white"/>
<path d="M233.87 22.3565V21.5195C233.87 20.1875 233.393 18.9904 232.439 17.9284C231.485 16.8484 230.315 16.3084 228.929 16.3084H228.416C228.164 16.3444 227.993 16.3624 227.903 16.3624C226.643 16.3624 225.446 17.0824 224.312 18.5224C223.196 19.9625 222.638 21.5015 222.638 23.1395V23.4905C222.638 24.0666 222.98 24.3546 223.664 24.3546C223.934 24.4086 224.078 24.4356 224.096 24.4356L224.717 24.4626H224.879L225.068 24.4356L230.279 24.1386L231.251 24.0306C232.997 24.0306 233.87 23.4725 233.87 22.3565ZM222.638 29.5117C222.638 31.5637 223.412 33.2828 224.96 34.6688C226.508 36.0548 228.47 36.7478 230.846 36.7478C231.8 36.7478 232.664 36.6128 233.438 36.3428C234.23 36.0548 235.085 35.7128 236.003 35.3168C236.939 34.9208 237.524 34.7228 237.758 34.7228C238.478 34.7228 238.838 35.1098 238.838 35.8838C238.838 36.9278 237.506 38.0439 234.842 39.2319C233.114 40.0059 231.26 40.3929 229.28 40.3929H228.686C225.302 40.3929 222.494 39.3669 220.262 37.3149C219.056 36.1988 218.119 34.7768 217.453 33.0488C216.787 31.3027 216.454 29.4307 216.454 27.4326L216.481 26.8116V26.1906C216.481 24.4626 216.877 22.7615 217.669 21.0875C218.479 19.4134 219.443 18.0364 220.559 16.9564C222.917 14.6883 225.716 13.5453 228.956 13.5273C233.852 13.5273 237.11 15.4354 238.73 19.2514C239.234 20.4575 239.486 21.5645 239.486 22.5725V23.1125C239.486 24.3546 238.973 25.1916 237.947 25.6236C236.921 26.0376 234.5 26.3796 230.684 26.6496C226.868 26.9196 224.798 27.0996 224.474 27.1896C223.25 27.4956 222.638 28.2696 222.638 29.5117Z" fill="white"/>
<path d="M267.575 6.42615C266.099 5.41812 264.434 4.91411 262.58 4.91411C260.744 4.91411 259.241 5.40012 258.071 6.37215C256.901 7.32617 256.316 8.6762 256.316 10.4222C256.316 12.1503 257.189 13.6803 258.935 15.0123C259.979 15.8224 262.112 16.9204 265.334 18.3064C268.556 19.6925 270.797 20.9705 272.057 22.1405C274.469 24.3726 275.675 26.6946 275.675 29.1067V30.0787C275.675 33.0668 274.487 35.4968 272.111 37.3689C271.013 38.2329 269.645 38.9259 268.007 39.4479C266.369 39.9519 264.731 40.2039 263.093 40.2039H262.094C258.386 40.2039 255.137 39.6459 252.347 38.5299C251.087 38.0259 250.457 36.6488 250.457 34.3988V33.4538C250.457 30.7897 250.916 29.4577 251.834 29.4577C252.464 29.4577 253.319 30.3127 254.399 32.0227C255.479 33.7328 256.721 35.0198 258.125 35.8838C259.547 36.7478 261.257 37.1799 263.255 37.1799C265.253 37.1799 266.864 36.6578 268.088 35.6138C269.312 34.5518 269.924 33.2468 269.924 31.6987C269.924 29.5747 268.934 27.7836 266.954 26.3256C266.108 25.7136 263.984 24.6246 260.582 23.0585C257.18 21.4745 254.822 19.9985 253.508 18.6304C251.708 16.7584 250.808 14.4723 250.808 11.7723C250.808 9.07221 251.771 6.83116 253.697 5.04912C254.759 4.05909 256.082 3.29408 257.666 2.75406C259.25 2.19605 260.87 1.91704 262.526 1.91704H263.525C264.209 1.91704 265.181 2.03405 266.441 2.26805L267.386 2.45706C268.502 2.67306 269.105 2.79006 269.195 2.80806L270.032 2.86207L270.842 2.88907C271.598 2.94307 272.129 3.03307 272.435 3.15907C273.497 3.59108 274.028 5.09412 274.028 7.66818C274.028 10.2422 273.524 11.5293 272.516 11.5293C272.012 11.5293 271.256 10.8092 270.248 9.36922C269.24 7.92918 268.349 6.94816 267.575 6.42615Z" fill="white"/>
<path d="M283.158 26.0016V27.0006C283.158 30.0607 283.752 32.5987 284.94 34.6148C285.498 35.5688 286.209 36.3248 287.073 36.8828C287.937 37.4409 288.81 37.7199 289.692 37.7199H290.232C291.87 37.7199 293.283 36.9278 294.471 35.3438C295.677 33.7418 296.28 31.4737 296.28 28.5397V26.6226C296.28 23.7245 295.677 21.2675 294.471 19.2514C293.283 17.2174 291.771 16.2004 289.935 16.2004H289.098C287.442 16.2004 286.038 17.0914 284.886 18.8734C283.734 20.6555 283.158 23.0315 283.158 26.0016ZM302.787 26.1096V27.4596C302.787 28.8817 302.499 30.4387 301.923 32.1307C300.717 35.6588 298.314 38.1249 294.714 39.5289C293.148 40.1409 291.636 40.4469 290.178 40.4469H289.287C285.849 40.4469 282.978 39.2949 280.674 36.9908C279.63 35.9468 278.784 34.5698 278.136 32.8598C277.488 31.1497 277.164 29.3317 277.164 27.4056V26.9466C277.164 25.2006 277.47 23.4365 278.082 21.6545C279.27 18.1804 281.601 15.7684 285.075 14.4183C286.641 13.8063 288.144 13.5003 289.584 13.5003H290.934C292.536 13.5003 294.111 13.8603 295.659 14.5803C298.593 15.9484 300.636 18.1264 301.788 21.1145C302.454 22.8785 302.787 24.5436 302.787 26.1096Z" fill="white"/>
<path d="M302.401 38.9619C302.401 38.5839 302.806 38.0979 303.616 37.5039C304.444 36.9098 305.002 35.9828 305.29 34.7228C305.578 33.4448 305.722 28.6207 305.722 20.2505C305.722 11.8803 305.623 7.13716 305.425 6.02114C305.245 4.90511 304.786 4.10409 304.048 3.61808C302.86 2.84407 302.266 2.36705 302.266 2.18705V1.86304C302.266 1.55704 302.527 1.28703 303.049 1.05302C304.669 0.351008 306.829 0 309.529 0H310.069C310.987 0 311.518 0.621014 311.662 1.86304C311.68 2.02505 311.689 3.38408 311.689 5.94014V11.7453L311.662 12.8523V14.5533L311.635 15.6604C311.635 15.6604 311.635 18.5134 311.635 24.2196C311.635 29.5477 311.716 32.8508 311.878 34.1288C312.058 35.3888 312.463 36.3068 313.093 36.8828C313.165 36.9368 313.543 37.1709 314.227 37.5849C314.911 37.9989 315.253 38.4219 315.253 38.8539C315.253 39.4839 314.137 39.7989 311.905 39.7989L310.798 39.8529H309.691L305.263 39.9339H304.696C303.166 39.9339 302.401 39.6099 302.401 38.9619Z" fill="white"/>
<path d="M342.177 36.9638C342.969 37.5759 343.365 38.0169 343.365 38.2869C343.365 38.5389 343.23 38.7819 342.96 39.0159C342.186 39.7179 340.53 40.0689 337.992 40.0689C337.164 40.0689 336.516 39.9339 336.048 39.6639C335.598 39.3759 335.193 38.8629 334.833 38.1249C334.491 37.3869 334.203 37.0178 333.969 37.0178C333.735 37.0359 333.213 37.3329 332.403 37.9089C330.135 39.5469 327.966 40.3659 325.896 40.3659C325.878 40.3659 325.851 40.3659 325.815 40.3659H325.004C322.034 40.3659 319.883 39.1059 318.551 36.5858C317.867 35.2718 317.516 32.0587 317.498 26.9466C317.498 21.8165 317.417 18.9994 317.255 18.4954C317.093 17.9734 316.517 17.4874 315.527 17.0374C314.555 16.5694 314.069 16.2094 314.069 15.9574C314.069 15.2914 314.384 14.8593 315.014 14.6613C316.418 14.2113 318.209 13.9863 320.387 13.9863C321.647 13.9863 322.448 14.4993 322.79 15.5254C323.24 16.8394 323.465 19.9805 323.465 24.9486C323.465 29.8987 323.681 32.9048 324.113 33.9668C324.851 35.7848 326.193 36.6938 328.137 36.6938C329.145 36.6938 330.144 36.4328 331.134 35.9108C332.142 35.3888 332.925 34.6868 333.483 33.8048C334.041 32.9228 334.32 30.5017 334.32 26.5416C334.32 22.5635 334.185 20.0615 333.915 19.0354C333.663 18.0094 333.267 17.2084 332.727 16.6324C332.187 16.0384 331.917 15.5704 331.917 15.2283C331.917 14.4363 334.032 14.0403 338.262 14.0403C339.144 14.0403 339.72 14.2383 339.99 14.6343C340.26 15.0123 340.395 15.7144 340.395 16.7404L340.314 18.3334L340.179 25.5156C340.179 30.1957 340.314 33.1208 340.584 34.2908C340.854 35.4428 341.385 36.3338 342.177 36.9638Z" fill="white"/>
<path d="M354.953 36.3428L359.057 35.7218C359.525 35.7218 359.759 36.0908 359.759 36.8288C359.759 37.5489 359.066 38.2959 357.68 39.0699C356.294 39.8439 354.836 40.2309 353.305 40.2309H352.765C351.559 40.2309 350.47 39.9159 349.498 39.2859C348.526 38.6559 347.815 37.8819 347.365 36.9638C346.591 35.3618 346.204 32.3287 346.204 27.8646C346.204 23.3825 346.042 20.5835 345.718 19.4674C345.412 18.3514 345.007 17.5864 344.503 17.1724C343.567 16.4164 343.099 16.0024 343.099 15.9304C343.099 15.4624 343.342 15.0663 343.828 14.7423C345.07 13.9143 345.745 13.4463 345.853 13.3383C345.979 13.2123 346.672 11.7363 347.932 8.9102C348.562 7.50617 349.273 6.80416 350.065 6.80416C350.875 6.80416 351.415 7.09216 351.685 7.66818C351.757 7.81218 351.91 8.5952 352.144 10.0172C352.396 11.4393 352.747 12.3573 353.197 12.7713C353.647 13.1673 354.647 13.5543 356.195 13.9323C357.743 14.2923 358.517 14.8143 358.517 15.4984C358.517 16.1824 357.662 16.6954 355.952 17.0374C354.241 17.3794 353.206 17.8204 352.846 18.3604C352.216 19.2784 351.901 21.8705 351.901 26.1366C351.901 30.4027 352.099 33.0938 352.495 34.2098C352.999 35.6318 353.818 36.3428 354.953 36.3428Z" fill="white"/>
<path d="M369.294 5.23812C369.294 6.03014 368.952 6.76816 368.268 7.45217C367.602 8.11819 366.936 8.45119 366.27 8.45119C366.126 8.4872 366.009 8.50519 365.919 8.50519L365.325 8.5592C364.425 8.5592 363.615 8.26219 362.895 7.66818C362.193 7.07416 361.842 6.30914 361.842 5.37312V4.88711C361.842 3.95109 362.211 3.16807 362.949 2.53806C363.705 1.89004 364.569 1.56604 365.541 1.56604H365.676L366.594 1.67404C367.152 1.67404 367.728 1.98005 368.322 2.59206C368.934 3.18607 369.24 3.78909 369.24 4.4011L369.294 4.64411V5.23812ZM360.708 17.2804C359.772 16.8304 359.304 16.4074 359.304 16.0114C359.304 15.6154 359.493 15.3004 359.871 15.0663C361.185 14.2743 363.264 13.8783 366.108 13.8783H366.891C367.863 13.8783 368.412 14.3283 368.538 15.2283C368.61 15.7144 368.646 18.9904 368.646 25.0566C368.646 31.1047 368.772 34.5788 369.024 35.4788C369.276 36.3608 369.879 37.0448 370.833 37.5309C371.787 37.9989 372.264 38.4759 372.264 38.9619C372.264 39.6459 370.032 39.9879 365.568 39.9879L364.758 40.0149H361.464C360.15 40.0149 359.493 39.6909 359.493 39.0429C359.493 38.5029 359.889 37.9809 360.681 37.4769C361.491 36.9728 362.049 36.4148 362.355 35.8028C362.697 35.1368 362.868 33.5798 362.868 31.1317L362.895 30.2677V29.4307L362.922 28.1616V27.3246L362.949 26.4876C362.949 22.2215 362.805 19.7375 362.517 19.0354C362.247 18.3154 361.644 17.7304 360.708 17.2804Z" fill="white"/>
<path d="M378.101 26.0016V27.0006C378.101 30.0607 378.695 32.5987 379.883 34.6148C380.441 35.5688 381.152 36.3248 382.016 36.8828C382.88 37.4409 383.753 37.7199 384.635 37.7199H385.175C386.813 37.7199 388.226 36.9278 389.414 35.3438C390.62 33.7418 391.223 31.4737 391.223 28.5397V26.6226C391.223 23.7245 390.62 21.2675 389.414 19.2514C388.226 17.2174 386.714 16.2004 384.878 16.2004H384.041C382.385 16.2004 380.981 17.0914 379.829 18.8734C378.677 20.6555 378.101 23.0315 378.101 26.0016ZM397.73 26.1096V27.4596C397.73 28.8817 397.442 30.4387 396.866 32.1307C395.66 35.6588 393.257 38.1249 389.657 39.5289C388.091 40.1409 386.579 40.4469 385.121 40.4469H384.23C380.792 40.4469 377.921 39.2949 375.617 36.9908C374.573 35.9468 373.727 34.5698 373.079 32.8598C372.431 31.1497 372.107 29.3317 372.107 27.4056V26.9466C372.107 25.2006 372.413 23.4365 373.025 21.6545C374.213 18.1804 376.544 15.7684 380.018 14.4183C381.584 13.8063 383.087 13.5003 384.527 13.5003H385.877C387.479 13.5003 389.054 13.8603 390.602 14.5803C393.536 15.9484 395.579 18.1264 396.731 21.1145C397.397 22.8785 397.73 24.5436 397.73 26.1096Z" fill="white"/>
<path d="M401.893 39.6909C399.354 39.6909 398.085 39.3309 398.085 38.6109C398.085 38.0169 398.418 37.5309 399.084 37.1529C400.29 36.4688 400.993 35.8568 401.191 35.3168C401.389 34.7588 401.488 32.1577 401.488 27.5136C401.488 22.8515 401.344 20.1245 401.056 19.3324C400.785 18.5224 400.281 17.8564 399.543 17.3344C398.805 16.8124 398.436 16.3894 398.436 16.0654C398.436 15.7414 398.679 15.4354 399.165 15.1473C400.299 14.4813 402.1 14.1483 404.566 14.1483C405.304 14.1483 405.88 14.4003 406.294 14.9043C406.438 15.0843 406.636 15.4804 406.888 16.0924C407.158 16.6864 407.338 16.9834 407.428 16.9834C407.77 16.9654 408.301 16.7224 409.021 16.2544C411.505 14.5803 413.755 13.7433 415.771 13.7433H416.689C418.147 13.7433 419.461 14.1033 420.631 14.8233C421.801 15.5434 422.701 16.6234 423.331 18.0634C423.979 19.5034 424.303 22.6445 424.303 27.4866C424.303 32.3107 424.402 35.0108 424.6 35.5868C424.816 36.1448 425.401 36.6668 426.355 37.1529C427.327 37.6389 427.813 38.1159 427.813 38.5839C427.813 39.3939 425.257 39.7989 420.145 39.7989H419.335C417.715 39.7989 416.905 39.4119 416.905 38.6379C416.905 38.4759 417.103 38.0889 417.499 37.4769C417.895 36.8468 418.165 36.1538 418.309 35.3978C418.453 34.6418 418.525 32.1577 418.525 27.9456C418.525 23.7155 418.264 20.9975 417.742 19.7915C417.022 18.1354 415.825 17.3074 414.151 17.3074C412.927 17.3074 411.739 17.5954 410.587 18.1714C409.453 18.7294 408.625 19.5304 408.103 20.5745C407.599 21.6005 407.347 24.0756 407.347 27.9996C407.347 31.9057 407.455 34.2728 407.671 35.1008C407.887 35.9108 408.148 36.5678 408.454 37.0718L409.453 38.6919C409.453 39.3939 408.04 39.7449 405.214 39.7449L403.567 39.6909H401.893Z" fill="white"/>
<path d="M443.803 27.7836C445.225 29.1337 445.936 30.8437 445.936 32.9138C445.936 34.9658 445.09 36.7298 443.398 38.2059C441.706 39.6639 439.366 40.3929 436.378 40.3929H435.649C432.247 40.3929 429.655 39.9699 427.873 39.1239C426.883 38.6559 426.387 37.6119 426.387 35.9918V35.3168C426.387 33.2468 426.775 32.2117 427.549 32.2117C428.197 32.2117 428.962 32.8237 429.844 34.0478C430.726 35.2538 431.464 36.0638 432.058 36.4778C433.21 37.2699 434.56 37.6659 436.108 37.6659C437.674 37.6659 438.826 37.3419 439.564 36.6938C440.302 36.0278 440.671 35.1548 440.671 34.0748C440.671 32.9948 440.041 31.9957 438.781 31.0777C438.115 30.5917 436.558 29.8267 434.11 28.7827C431.68 27.7386 429.862 26.6496 428.656 25.5156C427.45 24.3636 426.846 22.7435 426.846 20.6555C426.846 18.5674 427.72 16.8754 429.466 15.5794C431.212 14.2653 433.363 13.6083 435.919 13.6083H436.648C439.996 13.6083 442.345 14.0043 443.695 14.7963C444.397 15.2103 444.748 16.3624 444.748 18.2524C444.748 20.1425 444.298 21.0875 443.398 21.0875C442.894 21.0875 442.201 20.5295 441.319 19.4134C440.455 18.2794 439.663 17.4784 438.943 17.0104C438.223 16.5244 437.224 16.2814 435.946 16.2814C434.686 16.2814 433.687 16.5694 432.949 17.1454C432.211 17.7214 431.842 18.5584 431.842 19.6565C431.842 20.7365 432.517 21.7085 433.867 22.5725C434.209 22.8065 435.703 23.4995 438.349 24.6516C440.995 25.8036 442.813 26.8476 443.803 27.7836Z" fill="white"/>
<path fill-rule="evenodd" clip-rule="evenodd" d="M72.3929 20.0613C72.6556 20.9614 73.2303 21.4115 74.1169 21.4115C75.1789 21.4115 76.349 20.6105 77.627 19.0084C78.923 17.3884 80.264 16.5784 81.6501 16.5784C83.0361 16.5784 84.1431 16.9924 84.9712 17.8204C85.7992 18.6484 86.2132 19.8365 86.2132 21.3845C86.2132 22.9325 85.8172 23.9585 85.0252 24.4626C84.6291 24.7146 83.6661 24.9846 82.1361 25.2726C77.924 26.0646 75.0079 27.1716 73.3879 28.5937C71.7679 30.0157 70.9578 31.6627 70.9578 33.5348V34.2098C70.9578 35.9558 71.5878 37.4409 72.8479 38.6649C74.1079 39.8889 75.8449 40.5009 78.059 40.5009C79.535 40.5009 81.2541 40.0509 83.2161 39.1509C85.1782 38.2329 86.1952 37.7739 86.2672 37.7739C86.3392 37.7739 86.9242 38.2869 88.0222 39.3129C88.6342 39.8889 89.5613 40.1769 90.8033 40.1769C92.0633 40.1769 93.3413 39.8349 94.6374 39.1509C95.2854 38.8089 95.6094 38.3139 95.6094 37.6659C95.6094 37.3599 95.1054 37.0358 94.0974 36.6938C93.1073 36.3518 92.4953 35.8208 92.2613 35.1008C92.0453 34.3808 91.9373 31.9327 91.9373 27.7566C91.9373 23.5625 91.9193 21.2945 91.8833 20.9525C91.5053 17.5684 90.0023 15.3544 87.3742 14.3103C86.0782 13.7883 84.3501 13.5273 82.1901 13.5273H81.9741C79.706 13.5273 77.51 14.0583 75.3859 15.1203C75.0773 15.2733 74.7913 15.4294 74.5279 15.5886C74.4012 15.3909 74.2484 15.2078 74.0694 15.0393C73.4754 14.4453 72.6114 14.1483 71.4773 14.1483C70.3433 14.1483 69.3083 14.4003 68.3723 14.9043C67.4542 15.4084 66.6622 15.9124 65.9962 16.4164C65.3482 16.9204 64.8892 17.1724 64.6192 17.1724C64.3492 17.1724 63.9982 16.6594 63.5661 15.6334C63.1341 14.5893 62.4051 14.0673 61.3791 14.0673H60.8661C58.202 14.0673 56.312 14.4453 55.196 15.2013C54.8179 15.4534 54.6289 15.7414 54.6289 16.0654C54.6289 16.3894 55.16 16.9024 56.222 17.6044C56.816 18.0004 57.248 18.6574 57.518 19.5754C57.806 20.4935 57.95 23.0945 57.95 27.3786C57.95 31.6627 57.797 34.2458 57.491 35.1278C57.203 35.9918 56.627 36.7028 55.763 37.2609C54.9169 37.8009 54.4939 38.3139 54.4939 38.7999C54.4939 39.4839 55.448 39.8259 57.356 39.8259L59.057 39.8529L60.1911 39.9069H63.0531C66.3112 39.9069 67.9402 39.5559 67.9402 38.8539C67.9402 38.3859 67.4812 37.7829 66.5632 37.0448C65.6632 36.3068 64.9972 35.4968 64.5652 34.6148C64.1332 33.7148 63.9172 31.7347 63.9172 28.6747C63.9172 25.5966 64.1602 23.4275 64.6462 22.1675C65.1502 20.8895 65.7532 20.0075 66.4552 19.5214C67.1572 19.0174 67.8052 18.7654 68.3993 18.7654C68.9933 18.7654 69.7313 18.9904 70.6133 19.4404C71.3146 19.7839 71.9078 19.9909 72.3929 20.0613ZM85.3492 27.4056H84.8902C82.5321 27.4056 80.5611 27.9366 78.977 28.9987C77.411 30.0427 76.628 31.3477 76.628 32.9138V33.4538C76.628 34.3718 76.907 35.1998 77.465 35.9378C78.041 36.6578 78.779 37.0178 79.679 37.0178L80.003 37.0718H80.8131C82.6851 37.0718 84.2151 36.3068 85.4032 34.7768C85.9252 34.1108 86.1862 32.7428 86.1862 30.6727V30.1867L86.2132 29.5387V28.8907C86.2132 27.9006 85.9252 27.4056 85.3492 27.4056Z" fill="white"/>
<path d="M171.917 40.5279H170.432C165.158 40.5279 162.521 40.1229 162.521 39.3129C162.521 38.8449 162.962 38.3319 163.844 37.7739C164.744 37.2159 165.329 36.4508 165.599 35.4788C165.887 34.4888 166.031 31.7077 166.031 27.1356C166.031 22.5635 165.896 19.9625 165.626 19.3324C165.374 18.7024 164.897 18.1534 164.195 17.6854C163.493 17.1994 163.142 16.7674 163.142 16.3894C163.142 15.9934 163.538 15.3004 164.33 14.3103C165.14 13.3023 165.707 12.0963 166.031 10.6922C166.859 7.20017 168.002 4.66211 169.46 3.07807C171.314 1.04402 173.916 0.0270006 177.264 0.0270006C178.884 0.0270006 180.18 0.315007 181.152 0.89102C182.124 1.44903 182.61 2.17805 182.61 3.07807C182.61 3.97809 182.367 4.64411 181.881 5.07612C181.413 5.50813 180.909 5.72413 180.369 5.72413C179.847 5.72413 178.983 5.40012 177.777 4.75211C176.589 4.10409 175.689 3.78009 175.077 3.78009C174.087 3.78009 173.322 4.4011 172.781 5.64313C172.259 6.86716 171.998 8.21719 171.998 9.69322C171.998 11.1693 172.304 12.2493 172.917 12.9333C173.133 13.1673 173.284 13.6862 174.67 14.4062C175.67 14.9062 176.17 14.9747 176.17 14.9747C176.17 14.9747 177 15.1337 177.392 14.9747C177.784 14.8157 178.077 14.6993 178.407 14.5676C178.83 14.3994 179.208 14.1294 179.461 13.7519C180.056 12.8657 180.486 11.8458 180.752 10.6922C181.58 7.20017 182.723 4.66211 184.181 3.07807C186.035 1.04402 188.636 0.0270006 191.984 0.0270006C193.604 0.0270006 194.9 0.315007 195.872 0.89102C196.844 1.44903 197.33 2.17805 197.33 3.07807C197.33 3.97809 197.087 4.64411 196.601 5.07612C196.133 5.50813 195.629 5.72413 195.089 5.72413C194.567 5.72413 193.703 5.40012 192.497 4.75211C191.309 4.10409 190.409 3.78009 189.797 3.78009C188.807 3.78009 188.042 4.4011 187.502 5.64313C186.98 6.86716 186.719 8.21719 186.719 9.69322C186.719 11.1693 187.025 12.2493 187.637 12.9333C187.853 13.1673 188.654 13.6443 190.04 14.3643C191.426 15.0663 192.119 15.6874 192.119 16.2274C192.119 16.6414 191.408 17.0644 189.986 17.4964C188.564 17.9104 187.682 18.3694 187.34 18.8734C186.764 19.7195 186.476 22.4555 186.476 27.0816C186.476 31.6897 186.638 34.4618 186.962 35.3978C187.304 36.3338 187.961 37.1529 188.933 37.8549C189.905 38.5569 190.391 39.0969 190.391 39.4749C190.391 40.1769 189.14 40.5279 186.638 40.5279H185.153C179.879 40.5279 177.242 40.1229 177.242 39.3129C177.242 38.8449 177.683 38.3319 178.565 37.7739C179.465 37.2159 180.05 36.4508 180.32 35.4788C180.608 34.4888 180.752 31.7077 180.752 27.1356C180.752 22.5635 180.617 19.9625 180.347 19.3324C180.095 18.7024 179.618 18.1534 178.916 17.6854C178.797 17.6588 178.662 17.6291 178.516 17.5967C177.448 17.361 176.341 17.1846 175.291 17.4891C175.282 17.4915 175.274 17.494 175.266 17.4964C173.844 17.9104 172.962 18.3694 172.619 18.8734C172.043 19.7195 171.755 22.4555 171.755 27.0816C171.755 31.6897 171.917 34.4618 172.241 35.3978C172.583 36.3338 173.241 37.1529 174.213 37.8549C175.185 38.5569 175.671 39.0969 175.671 39.4749C175.671 40.1769 174.42 40.5279 171.917 40.5279Z" fill="white"/>
</svg>
